<svg width="64" height="64" viewBox="0 0 64 64" fill="none" xmlns="http://www.w3.org/2000/svg">
<g clip-path="url(#clip0)">
<path fill-rule="evenodd" clip-rule="evenodd" d="M16.0097 0C11.7662 0 7.69656 1.68571 4.69597 4.68629C1.69539 7.68687 0.00967407 11.7565 0.00967407 16V48C0.00967407 52.2435 1.69539 56.3131 4.69597 59.3137C7.69656 62.3143 11.7662 64 16.0097 64H48.0097C52.2532 64 56.3229 62.3143 59.3235 59.3137C62.324 56.3131 64.0098 52.2435 64.0098 48V16C64.0098 11.7565 62.324 7.68687 59.3235 4.68629C56.3229 1.68571 52.2532 0 48.0097 0L16.0097 0ZM20.2497 48H34.1497C41.3657 48 45.7017 44.368 45.7017 38.416C45.7017 34.008 42.6577 30.752 38.0857 30.28V29.88C41.4137 29.32 44.0137 26.16 44.0137 22.616C44.0137 17.416 40.1937 14.176 33.8457 14.176H20.2497V48ZM25.5017 28.5V18.632H32.6217C36.5137 18.632 38.7897 20.46 38.7897 23.58C38.7897 26.788 36.3737 28.5 31.7337 28.5H25.5017ZM25.5017 43.548H33.0937C37.8297 43.548 40.3337 41.628 40.3337 38.04C40.3337 34.5 37.7337 32.648 32.7897 32.648H25.5017V43.548Z" fill="black"/>
</g>
<defs>
<clipPath id="clip0">
<rect width="64" height="64" fill="white"/>
</clipPath>
</defs>
</svg>
