<svg width="64" height="64" viewBox="0 0 64 64" fill="none" xmlns="http://www.w3.org/2000/svg">
<g clip-path="url(#clip0)">
<path d="M22.6352 63.9992C20.6191 63.1106 18.8805 61.694 17.603 59.8989C16.3254 58.1039 15.5564 55.9972 15.3772 53.8012C15.496 51.5315 16.1508 49.3222 17.2879 47.3543C18.425 45.3863 20.0121 43.7157 21.9192 42.4792C21.6047 43.2403 21.4764 44.0654 21.5449 44.886C21.6134 45.7065 21.8768 46.4989 22.3132 47.1973C22.8019 47.8832 23.4797 48.412 24.2639 48.7192C25.048 49.0264 25.9047 49.0987 26.7292 48.9272C27.5135 48.7065 28.2237 48.2782 28.7849 47.6876C29.3461 47.0969 29.7375 46.3658 29.9179 45.5712C30.0984 44.7767 30.061 43.9482 29.8099 43.1731C29.5588 42.398 29.1033 41.7051 28.4912 41.1672C27.1504 40.08 26.1136 38.6643 25.4817 37.0578C24.8499 35.4513 24.6444 33.7087 24.8852 31.9993C25.3583 30.1534 26.3791 28.494 27.8132 27.2393C26.7272 30.1253 29.7712 32.9573 31.8232 34.3653C35.4496 36.5369 38.9413 38.926 42.2792 41.5192C44.0762 42.9357 45.501 44.7687 46.4304 46.8595C47.3598 48.9504 47.7658 51.2362 47.6132 53.5192C47.2156 55.9251 46.164 58.1752 44.5735 60.0236C42.983 61.8719 40.9149 63.2473 38.5952 63.9992C48.0532 61.8952 57.8132 54.3752 58.0012 43.7092C57.9082 39.5296 56.6315 35.4621 54.3195 31.979C52.0074 28.4958 48.7548 25.7399 44.9392 24.0313H44.5952C44.7612 24.4473 44.8432 24.8953 44.8332 25.3533C44.8552 25.0583 44.8552 24.7622 44.8332 24.4673C44.8752 24.8213 44.8752 25.1653 44.8332 25.5073C44.5476 26.675 43.8105 27.6818 42.7835 28.3069C41.7566 28.9319 40.5237 29.1241 39.3552 28.8413C38.3855 28.6026 37.5215 28.0508 36.8972 27.2713C33.7712 23.2713 36.8972 18.7193 37.4172 14.3113C37.5759 11.5488 37.035 8.79092 35.8446 6.29302C34.6542 3.79513 32.8528 1.63797 30.6072 0.0212669C32.8872 3.82327 29.8452 8.82326 27.6372 11.6673C25.4292 14.5113 22.2312 16.6253 19.6152 19.1053C16.8038 21.7281 14.2285 24.5931 11.9192 27.6673C9.45126 30.6825 7.69094 34.2129 6.76783 37.9984C5.84471 41.784 5.78231 45.7284 6.58521 49.5412C7.67785 53.1915 9.75126 56.4719 12.5796 59.0251C15.4079 61.5784 18.8826 63.3065 22.6252 64.0212H22.6672L22.6352 63.9992Z" fill="black"/>
</g>
<defs>
<clipPath id="clip0">
<rect width="64" height="64" fill="white"/>
</clipPath>
</defs>
</svg>
