<svg width="64" height="64" viewBox="0 0 64 64" fill="none" xmlns="http://www.w3.org/2000/svg">
<path d="M0.4165 49.6661V25.1911H9.3095V23.7595H0.4165V1.43119H9.87175V0H0V51.0973H9.955V49.6661H0.416625H0.4165ZM17.9734 14.3128L14.2871 30.9876L10.684 14.3132H10.1425L14.0371 32.0614L9.7675 51.0969H10.2674L14.2869 33.134L18.3272 51.0969H18.8479L14.5576 32.0606L18.473 14.3124H17.9732L17.9734 14.3128ZM20.0976 63.6929V40.7925H20.1392C20.3892 44.1321 20.8821 46.8158 21.618 48.8436C22.3539 50.871 23.291 51.8851 24.4295 51.8851C25.1654 51.8851 25.818 51.3722 26.3873 50.3465C26.9565 49.3208 27.432 47.9253 27.8139 46.1599C28.1956 44.3945 28.4873 42.3431 28.6886 40.0052C28.8899 37.6676 28.9906 35.2103 28.9906 32.6344C28.9906 29.8669 28.8864 27.3143 28.6781 24.9767C28.4699 22.6388 28.1679 20.611 27.7722 18.8937C27.3765 17.1761 26.8975 15.8398 26.3351 14.8862C25.7729 13.9318 25.1376 13.4546 24.4295 13.4546C23.888 13.4546 23.3847 13.7291 22.9196 14.2776C22.4545 14.8265 22.0415 15.6014 21.6805 16.6035C21.3174 17.6133 21.0013 18.8079 20.7432 20.1458C20.4795 21.5057 20.2781 22.9966 20.1392 24.619H20.0976V14.3128H19.6811V63.6929H20.0976ZM24.4295 50.5248C23.1245 50.5248 22.0761 48.9862 21.2847 45.909C20.4934 42.8319 20.0976 38.4064 20.0976 32.6336C20.0976 30.2479 20.1949 27.9817 20.3892 25.835C20.5836 23.6882 20.8647 21.8034 21.2326 20.1815C21.6006 18.5591 22.0554 17.271 22.5968 16.317C23.1383 15.3626 23.7493 14.8854 24.4295 14.8854C25.1238 14.8854 25.7313 15.3626 26.2519 16.317C26.7725 17.271 27.203 18.5712 27.5431 20.2171C27.8832 21.8631 28.1401 23.7479 28.3137 25.8706C28.4872 27.9938 28.574 30.2479 28.574 32.6336C28.574 34.7808 28.4942 36.916 28.3345 39.0387C28.1749 41.1619 27.9284 43.0703 27.5951 44.7643C27.262 46.4576 26.8351 47.8411 26.3144 48.9149C25.7936 49.9883 25.1654 50.5248 24.4295 50.5248ZM31.2815 51.0973V30.272C31.2815 28.2682 31.3647 26.3117 31.5315 24.4038C31.698 22.4954 31.9549 20.8133 32.302 19.3585C32.6491 17.9032 33.0899 16.7581 33.6245 15.9231C34.159 15.0881 34.7943 14.7423 35.5301 14.8854V13.4542C34.8914 13.4069 34.3326 13.6449 33.8536 14.1698C33.3745 14.6947 32.9615 15.4103 32.6144 16.317C32.2673 17.2233 31.9896 18.2847 31.7814 19.5015C31.5733 20.7165 31.4188 22.0308 31.3231 23.4017H31.2815V14.3128H30.865V51.0978H31.2815V51.0973ZM36.0508 32.9914H45.0061C45.034 30.4627 44.9611 28.0299 44.7875 25.6919C44.614 23.354 44.3362 21.2785 43.9545 19.4659C43.5726 17.6528 43.0798 16.1976 42.4757 15.1001C41.8717 14.0027 41.1533 13.4542 40.3203 13.4542C39.7231 13.4542 39.14 13.8837 38.5708 14.7428C38.0015 15.6014 37.5016 16.8535 37.0713 18.4994C36.6409 20.1454 36.2937 22.1612 36.03 24.5472C35.7663 26.9324 35.6343 29.6518 35.6343 32.7053C35.6343 35.4246 35.7245 37.9653 35.905 40.3269C36.0855 42.6884 36.3631 44.7403 36.738 46.4816C37.113 48.2229 37.5955 49.5708 38.1855 50.5248C38.7755 51.4792 39.4871 51.9323 40.3203 51.8847C41.542 51.8847 42.5695 50.7035 43.4025 48.3423C44.2356 45.9803 44.7285 42.6528 44.8812 38.3588H44.4647C44.2842 42.4144 43.8225 45.4559 43.0798 47.4833C42.3369 49.5111 41.4032 50.5248 40.2785 50.5248C39.5149 50.5248 38.8693 50.0716 38.3416 49.1653C37.8141 48.259 37.3836 47.0181 37.0504 45.4439C36.7173 43.8692 36.4708 42.0205 36.3111 39.8973C36.1514 37.7746 36.0646 35.4723 36.0508 32.9914ZM44.5896 31.5602H36.0509C36.0924 28.9838 36.2313 26.67 36.4673 24.6185C36.7034 22.5667 37.0123 20.8133 37.3941 19.3585C37.7759 17.9032 38.2203 16.7942 38.727 16.0305C39.2337 15.2672 39.7787 14.8854 40.3619 14.8854C41.0561 14.8854 41.6669 15.3269 42.1946 16.2096C42.7221 17.0923 43.163 18.2971 43.5171 19.8237C43.8711 21.3502 44.1384 23.1276 44.3189 25.155C44.4994 27.1828 44.5896 29.318 44.5896 31.5602ZM53.6493 25.1911H54.0658C54.0658 21.0878 53.7186 18.106 53.0245 16.2453C52.3301 14.3845 51.386 13.4542 50.192 13.4542C49.5255 13.4542 48.9632 13.7407 48.505 14.3132C48.0469 14.8854 47.672 15.625 47.3804 16.5313C47.0889 17.4376 46.8806 18.4397 46.7556 19.5372C46.6306 20.6346 46.5681 21.6844 46.5681 22.6861C46.5681 24.6898 46.6723 26.2881 46.8806 27.4809C47.0889 28.6737 47.4151 29.6041 47.8594 30.272C48.1649 30.7488 48.5119 31.1783 48.9007 31.5606C49.2895 31.942 49.7408 32.3475 50.2545 32.7766C50.7126 33.1589 51.1639 33.5403 51.6082 33.9217C52.0525 34.3036 52.4447 34.8164 52.7849 35.4603C53.1251 36.1046 53.4028 36.9276 53.618 37.9297C53.8331 38.9313 53.9408 40.2435 53.9408 41.8654C53.9408 43.4401 53.8332 44.7759 53.618 45.873C53.4046 46.9647 53.1237 47.8812 52.7954 48.5571C52.4621 49.2486 52.0906 49.7495 51.6811 50.0596C51.2715 50.3697 50.8724 50.5248 50.4836 50.5248C49.2201 50.5248 48.2516 49.5588 47.5783 47.6267C46.9049 45.6943 46.5682 42.6528 46.5682 38.5018H46.1516C46.1516 43.13 46.5161 46.5173 47.245 48.6645C47.974 50.8113 49.0535 51.8847 50.4836 51.8847C50.9417 51.8847 51.4034 51.7056 51.8686 51.3478C52.3336 50.99 52.7503 50.4058 53.1181 49.5944C53.4829 48.7945 53.7893 47.7173 54.0136 46.446C54.2428 45.1574 54.3574 43.5831 54.3574 41.7224C54.3574 39.957 54.2566 38.5258 54.0554 37.4284C53.854 36.3314 53.5902 35.4246 53.2639 34.709C52.9376 33.9934 52.5698 33.4329 52.1601 33.0274C51.7482 32.6196 51.3351 32.2258 50.9209 31.8462C50.4111 31.3867 49.9009 30.9335 49.3901 30.4868C48.9529 30.1049 48.5467 29.6518 48.1719 29.1269C47.8109 28.602 47.5227 27.8507 47.3075 26.8727C47.0923 25.8947 46.9847 24.4991 46.9847 22.6861C46.9847 22.3523 47.0125 21.7557 47.068 20.8971C47.1235 20.038 47.2555 19.1674 47.4637 18.2847C47.672 17.4024 47.9912 16.6151 48.4217 15.9231C48.8521 15.2316 49.4423 14.8854 50.192 14.8854C50.7057 14.8854 51.1743 15.0765 51.5978 15.4579C52.0213 15.8398 52.3857 16.448 52.6911 17.283C52.9966 18.118 53.2326 19.1794 53.3993 20.4675C53.5659 21.7561 53.6493 23.3304 53.6493 25.1911ZM63.2919 25.1911H63.7084C63.7084 21.0878 63.3614 18.106 62.6671 16.2453C61.9729 14.3845 61.0288 13.4542 59.8346 13.4542C59.1683 13.4542 58.6059 13.7407 58.1478 14.3132C57.6895 14.8854 57.3146 15.625 57.0231 16.5313C56.7315 17.4376 56.5233 18.4397 56.3983 19.5372C56.2733 20.6346 56.2109 21.6844 56.2109 22.6861C56.2109 24.6898 56.315 26.2881 56.5234 27.4809C56.7315 28.6737 57.0579 29.6041 57.5021 30.272C57.8076 30.7488 58.1546 31.1783 58.5434 31.5606C58.9321 31.942 59.3834 32.3475 59.8971 32.7766C60.3554 33.1589 60.8066 33.5403 61.2509 33.9217C61.6952 34.3036 62.0874 34.8164 62.4276 35.4603C62.7677 36.1046 63.0455 36.9276 63.2606 37.9297C63.4759 38.9313 63.5835 40.2435 63.5835 41.8654C63.5835 43.4401 63.4759 44.7759 63.2606 45.873C63.0472 46.9646 62.7664 47.8811 62.4381 48.5571C62.1048 49.2486 61.7334 49.7495 61.3237 50.0596C60.9142 50.3697 60.515 50.5248 60.1263 50.5248C58.8628 50.5248 57.8944 49.5588 57.221 47.6267C56.5475 45.6943 56.2109 42.6528 56.2109 38.5018H55.7944C55.7944 43.13 56.1587 46.5173 56.8877 48.6645C57.6166 50.8113 58.6961 51.8847 60.1263 51.8847C60.5845 51.8847 61.0461 51.7056 61.5112 51.3478C61.9762 50.99 62.3929 50.4058 62.7609 49.5944C63.1256 48.7945 63.432 47.7173 63.6564 46.446C63.8855 45.1574 64 43.5831 64 41.7224C64 39.957 63.8994 38.5258 63.698 37.4284C63.4968 36.3314 63.233 35.4246 62.9066 34.709C62.5804 33.9934 62.2124 33.4329 61.8029 33.0274C61.3909 32.6196 60.9778 32.2258 60.5636 31.8462C60.0539 31.3867 59.5436 30.9335 59.0329 30.4868C58.5955 30.1049 58.1894 29.6518 57.8145 29.1269C57.4535 28.602 57.1654 27.8507 56.9502 26.8727C56.735 25.8947 56.6274 24.4991 56.6274 22.6861C56.6274 22.3523 56.6551 21.7557 56.7108 20.8971C56.7663 20.038 56.8983 19.1674 57.1064 18.2847C57.3146 17.4024 57.634 16.6151 58.0644 15.9231C58.4949 15.2316 59.0849 14.8854 59.8348 14.8854C60.3485 14.8854 60.817 15.0765 61.2405 15.4579C61.664 15.8398 62.0284 16.448 62.3339 17.283C62.6394 18.118 62.8754 19.1794 63.042 20.4675C63.2086 21.7561 63.292 23.3304 63.292 25.1911H63.2919Z" fill="#222222"/>
</svg>
