<svg width="64" height="64" viewBox="0 0 64 64" fill="none" xmlns="http://www.w3.org/2000/svg">
<path d="M13.9717 40.168L19.2277 6.34938C19.2663 6.09893 19.3827 5.86695 19.5604 5.68628C19.738 5.5056 19.968 5.38538 20.2178 5.34262C20.4676 5.29986 20.7245 5.33673 20.9521 5.44801C21.1798 5.5593 21.3667 5.73936 21.4864 5.96271L27.1397 16.5734L13.9717 40.168ZM51.3077 48.3734L46.3024 17.2507C46.2647 17.0329 46.1681 16.8295 46.0231 16.6627C45.878 16.4959 45.6901 16.372 45.4796 16.3044C45.2692 16.2368 45.0442 16.2281 44.8292 16.2793C44.6141 16.3305 44.4172 16.4396 44.2597 16.5947L12.6944 48.3734L30.1611 58.216C31.2571 58.8294 32.5931 58.8294 33.6891 58.216L51.3077 48.3734ZM37.1131 21.2134L33.0677 13.472C32.9655 13.2777 32.8121 13.115 32.6241 13.0015C32.4361 12.888 32.2207 12.828 32.0011 12.828C31.7815 12.828 31.566 12.888 31.3781 13.0015C31.1901 13.115 31.0367 13.2777 30.9344 13.472L13.1717 45.304L37.1131 21.2134Z" fill="orange"/>
</svg>
