<svg width="64" height="64" viewBox="0 0 64 64" fill="none" xmlns="http://www.w3.org/2000/svg">
<path d="M8.91846 18.4934C4.23579 25.2214 4.81712 33.976 8.39579 41.1254L8.65712 41.632C8.71312 41.7387 8.76646 41.8507 8.82512 41.9547C8.85712 42.0187 8.89446 42.08 8.92912 42.1387C9.09735 42.4489 9.27341 42.7548 9.45712 43.056L9.65179 43.376C9.83304 43.6734 10.0206 43.9668 10.2145 44.256C10.4055 44.5433 10.602 44.8269 10.8038 45.1067L10.8998 45.2374C11.0678 45.472 11.2438 45.704 11.4225 45.9334L11.6198 46.184L12.1051 46.7787L12.2891 46.9974C12.5078 47.256 12.7345 47.5147 12.9611 47.768L12.9745 47.7814C12.9851 47.792 12.9931 47.7974 13.0011 47.8107C13.2225 48.0534 13.4545 48.2934 13.6838 48.5334L13.9051 48.7547L14.4518 49.2907L14.6758 49.504C14.9211 49.736 15.1718 49.9627 15.4251 50.1867L15.4358 50.1974L15.5665 50.3067C15.7878 50.5014 16.0171 50.6934 16.2465 50.88L16.5265 51.104C17.0165 51.4969 17.519 51.874 18.0331 52.2347C18.1105 52.2907 18.1851 52.3467 18.2651 52.4L18.3291 52.4454C18.5318 52.5867 18.7398 52.72 18.9451 52.8534C19.0331 52.912 19.1211 52.9734 19.2145 53.032C19.9805 53.5209 20.7689 53.9739 21.5771 54.3894C21.7505 54.48 21.9211 54.5707 22.0971 54.6587L22.2171 54.7174L22.4305 54.8214C22.7025 54.9494 22.9771 55.08 23.2518 55.2027L23.4278 55.28C23.7451 55.4187 24.0651 55.552 24.3878 55.6774L24.6225 55.7707C24.9601 55.9019 25.2997 56.0281 25.6411 56.1494C25.9745 56.2667 26.3131 56.376 26.6545 56.48L26.8998 56.5547C27.2411 56.6587 27.5825 56.7814 27.9398 56.848C50.5851 60.976 57.1611 43.2427 57.1611 43.2427C51.6358 50.4374 41.8331 52.336 32.5425 50.224C32.1905 50.144 31.8465 50.0347 31.5025 49.9334L31.2438 49.856C30.5643 49.646 29.8928 49.4112 29.2305 49.152L28.9825 49.056C28.6625 48.9307 28.3451 48.7974 28.0331 48.6614L27.8438 48.5787C27.5745 48.458 27.3069 48.3335 27.0411 48.2054L26.8091 48.0934C26.6011 47.992 26.3958 47.8827 26.1905 47.7787C26.0545 47.7067 25.9131 47.6374 25.7771 47.56C25.5274 47.4261 25.2802 47.2874 25.0358 47.144L24.7851 47.0054C24.4588 46.8132 24.1361 46.6149 23.8171 46.4107L23.5558 46.2374C23.3233 46.0879 23.0931 45.935 22.8651 45.7787L22.6438 45.6214C22.4251 45.4667 22.2065 45.312 21.9931 45.152C21.6976 44.9305 21.406 44.7038 21.1185 44.472L20.8545 44.2614C20.6091 44.0587 20.3638 43.856 20.1238 43.6454C19.8357 43.3945 19.5521 43.1384 19.2731 42.8774C19.1985 42.808 19.1265 42.7414 19.0571 42.6694C18.869 42.4923 18.684 42.3118 18.5025 42.128L18.2865 41.912C18.0566 41.6768 17.8308 41.4377 17.6091 41.1947L17.5771 41.1627C17.3435 40.9061 17.1141 40.6456 16.8891 40.3814L16.7105 40.1654C16.4793 39.8916 16.2534 39.6133 16.0331 39.3307C15.8382 39.0794 15.6471 38.8251 15.4598 38.568C10.3025 31.5334 8.45179 21.8294 12.5718 13.8614" fill="#045EB1"/>
<path d="M23.4518 12.824C20.0652 17.696 20.2518 24.2187 22.8918 29.3707C23.3345 30.2347 23.8332 31.0747 24.3878 31.872C24.8972 32.6 25.4572 33.464 26.1318 34.048C26.3772 34.3174 26.6305 34.5787 26.8892 34.8347L27.0918 35.0321C27.3425 35.2774 27.5985 35.5174 27.8678 35.7547L27.8972 35.7814L27.9052 35.7867C28.2012 36.0454 28.5025 36.2934 28.8118 36.5361L29.0198 36.696C29.3386 36.9431 29.664 37.1815 29.9958 37.4107C30.1372 37.5094 30.2838 37.6027 30.4252 37.696C30.4945 37.7414 30.5612 37.7894 30.6332 37.8321C30.8967 38.0022 31.1643 38.1658 31.4358 38.3227C31.6385 38.4401 31.8492 38.5547 32.0572 38.6694C32.1265 38.7094 32.2038 38.7467 32.2758 38.784C32.4225 38.8587 32.5638 38.9361 32.7105 39.0054C33.0317 39.1641 33.3563 39.3162 33.6838 39.4614L33.8812 39.5441C34.1292 39.6481 34.3772 39.7494 34.6305 39.8454L34.9425 39.9627C35.1718 40.0481 35.3985 40.1227 35.6252 40.2001L35.9372 40.2987C36.2598 40.4001 36.5852 40.5254 36.9238 40.5841C54.4065 43.48 58.4385 30.0214 58.4385 30.0214C54.8012 35.2587 47.7558 37.7601 40.2385 35.8081C39.5683 35.6347 38.907 35.4282 38.2572 35.1894L37.9425 35.0747C37.6256 34.9537 37.3117 34.8248 37.0012 34.6881C36.6924 34.5533 36.3865 34.412 36.0838 34.264C35.9318 34.1894 35.7825 34.1094 35.6305 34.0321L35.3665 33.8961C34.8837 33.6336 34.4096 33.3552 33.9452 33.0614L33.7318 32.9201C33.1783 32.5596 32.6425 32.1725 32.1265 31.76C28.8358 29.1627 26.2252 25.6107 24.9852 21.5867C23.6838 17.4107 23.9665 12.7254 26.2172 8.92005" fill="#045EB1"/>
<path d="M35.6773 8.58935C33.68 11.528 33.4826 15.1734 34.8666 18.4187C36.328 21.864 39.3226 24.5627 42.8159 25.8454C43.0216 25.9222 43.2298 25.9925 43.44 26.056C43.6453 26.12 43.8453 26.1974 44.0613 26.2347C53.7146 28.0987 56.3306 21.2827 57.0266 20.2774C54.7333 23.5814 50.8773 24.3734 46.1519 23.224C45.2907 22.9963 44.4525 22.6892 43.6479 22.3067C42.8071 21.9009 42.0077 21.4142 41.2613 20.8534C37.0346 17.6427 34.4 11.5174 37.1653 6.52802" fill="#045EB1"/>
</svg>
