<svg width="64" height="64" viewBox="0 0 64 64" fill="none" xmlns="http://www.w3.org/2000/svg">
<g clip-path="url(#clip0)">
<path d="M63.0539 14.4838C63.0739 14.5678 63.0859 14.6618 63.0859 14.7438V28.4838C63.0864 28.6592 63.0403 28.8315 62.9525 28.9833C62.8647 29.135 62.7382 29.2608 62.5859 29.3478L51.0539 35.9938V49.1498C51.0544 49.3251 51.0083 49.4975 50.9205 49.6493C50.8327 49.801 50.7062 49.9268 50.5539 50.0138L26.4819 63.8678C26.4257 63.899 26.3659 63.9231 26.3039 63.9398L26.2419 63.9718C26.0745 64.0138 25.8993 64.0138 25.7319 63.9718C25.7066 63.9642 25.6824 63.9535 25.6599 63.9398C25.6021 63.9219 25.5464 63.8978 25.4939 63.8678L1.43188 50.0138C1.27856 49.9272 1.15073 49.8017 1.06122 49.6501C0.971699 49.4984 0.923644 49.3259 0.921875 49.1498V7.9318C0.921875 7.8478 0.941875 7.7538 0.963875 7.6718C0.973875 7.6398 0.983875 7.6198 0.995875 7.5878L1.05788 7.4318C1.06788 7.3998 1.09988 7.3798 1.11988 7.3478L1.21388 7.2218C1.24754 7.20101 1.27904 7.17689 1.30788 7.1498C1.34988 7.1178 1.37988 7.0878 1.42188 7.0658L13.4539 0.137799C13.606 0.0504206 13.7784 0.00444031 13.9539 0.00444031C14.1293 0.00444031 14.3017 0.0504206 14.4539 0.137799L26.4959 7.0658C26.5379 7.0858 26.5679 7.1178 26.5999 7.1498L26.7039 7.2218C26.7346 7.2619 26.7627 7.30399 26.7879 7.3478C26.8079 7.3678 26.8399 7.3998 26.8599 7.4318L26.9219 7.5878C26.9319 7.6198 26.9539 7.6398 26.9539 7.6718C26.9842 7.75504 26.9984 7.84326 26.9959 7.9318V33.6718L37.0159 27.9018V14.7458C37.0197 14.6276 37.0447 14.5111 37.0899 14.4018L37.1519 14.2458C37.1719 14.2038 37.2039 14.1838 37.2239 14.1518C37.2559 14.1098 37.2759 14.0678 37.3079 14.0378C37.3399 14.0078 37.3799 13.9858 37.4119 13.9658C37.4419 13.9325 37.477 13.9042 37.5159 13.8818L49.5579 6.9538C49.7083 6.86148 49.8814 6.81262 50.0579 6.81262C50.2344 6.81262 50.4075 6.86148 50.5579 6.9538L62.5899 13.8818C62.6319 13.9018 62.6619 13.9338 62.7039 13.9658C62.7359 13.9858 62.7659 14.0078 62.7979 14.0378C62.8299 14.0678 62.8599 14.1098 62.8919 14.1518C62.9119 14.1838 62.9439 14.2038 62.9539 14.2458C62.9859 14.2978 62.9959 14.3498 63.0159 14.4018C63.0359 14.4218 63.0479 14.4538 63.0579 14.4858L63.0539 14.4838ZM61.0739 27.8998V16.4838L56.8659 18.8998L51.0539 22.2538V33.6698L61.0739 27.8998ZM49.0539 48.5658V37.1378L43.3239 40.3978L26.9899 49.7318V61.2638L49.0539 48.5658ZM2.91788 9.6698V48.5658L24.9799 61.2638V49.7318L13.4479 43.1998C13.4059 43.1798 13.3759 43.1478 13.3439 43.1158C13.3119 43.0958 13.2719 43.0738 13.2499 43.0438H13.2399C13.2079 43.0118 13.1879 42.9718 13.1559 42.9398C13.1359 42.9078 13.1039 42.8778 13.0839 42.8358C13.0606 42.7965 13.0431 42.7541 13.0319 42.7098C13.0119 42.6678 12.9899 42.6378 12.9799 42.5958C12.9699 42.5538 12.9599 42.5018 12.9599 42.4498C12.9499 42.4078 12.9399 42.3778 12.9399 42.3358V15.4398L7.12788 12.0858L2.91788 9.6698ZM13.9499 2.1598L3.92988 7.9298L13.9499 13.6998L23.9699 7.9298L13.9499 2.1598ZM19.1679 38.1818L24.9799 34.8278V9.6718L20.7719 12.0878L14.9499 15.4418V40.5978L19.1679 38.1818ZM50.0539 8.9718L40.0219 14.7418L50.0539 20.5118L60.0739 14.7418L50.0539 8.9718ZM49.0539 22.2538L39.0219 16.4838V27.8998L44.8339 31.2538L49.0519 33.6698L49.0539 22.2538ZM25.9819 47.9938L48.0339 35.4098L38.0239 29.6398L15.9819 42.3278L25.9819 47.9938Z" fill="black"/>
</g>
<defs>
<clipPath id="clip0">
<rect width="64" height="64" fill="white"/>
</clipPath>
</defs>
</svg>
