<svg width="64" height="64" viewBox="0 0 64 64" fill="none" xmlns="http://www.w3.org/2000/svg">
<path d="M43.7467 14.6693C43.44 14.6693 43.232 14.7067 43.016 14.7573V14.792H43.0533C43.1973 15.0693 43.4427 15.272 43.624 15.52C43.768 15.8053 43.8907 16.0907 44.0347 16.3733L44.072 16.3333C44.3227 16.1573 44.4453 15.8747 44.4453 15.4453C44.3387 15.32 44.3227 15.1947 44.232 15.072C44.1253 14.8933 43.896 14.8053 43.752 14.664L43.7467 14.6693ZM15.3867 49.8533H12.9147C12.8451 45.9248 12.6049 42.0011 12.1947 38.0933H12.1733L8.41333 49.8533H6.53333L2.8 38.0933H2.77333C2.48132 42.0072 2.3079 45.929 2.25333 49.8533H0C0.146667 44.6107 0.512 39.6933 1.09333 35.1067H4.16L7.72 45.944H7.74133L11.3333 35.1067H14.2533C14.8987 40.48 15.2773 45.4 15.3947 49.8533H15.3867ZM26.0987 38.9733C25.0907 44.4267 23.7627 48.3947 22.12 50.8667C20.8347 52.776 19.4267 53.728 17.8987 53.728C17.4907 53.728 16.992 53.6053 16.3893 53.36V52.0427C16.6827 52.088 17.0293 52.112 17.4187 52.112C18.1333 52.112 18.7067 51.912 19.144 51.52C19.6693 51.04 19.9307 50.5013 19.9307 49.9067C19.9307 49.4933 19.7253 48.6533 19.3173 47.3893L16.6133 38.9733H19.04L20.9787 45.2667C21.416 46.696 21.6 47.6933 21.5253 48.2613C22.592 45.424 23.3333 42.3227 23.752 38.9733H26.0987ZM58.9653 49.8533H51.952V35.1067H54.312V48.04H58.9653V49.8533ZM50.112 50.2133L47.4027 48.88C47.6427 48.6773 47.8747 48.4587 48.0827 48.2133C49.2373 46.864 49.8107 44.8587 49.8107 42.2053C49.8107 37.3253 47.896 34.8827 44.064 34.8827C42.1867 34.8827 40.72 35.5013 39.664 36.7413C38.5173 38.096 37.9413 40.0907 37.9413 42.728C37.9413 45.32 38.448 47.224 39.472 48.4347C40.4053 49.528 41.8107 50.0747 43.6933 50.0747C44.3973 50.0747 45.0427 49.9867 45.6267 49.8133L49.16 51.872L50.12 50.2133H50.112ZM41.3333 46.9013C40.7333 45.9413 40.4347 44.3947 40.4347 42.272C40.4347 38.5573 41.5653 36.6987 43.8213 36.6987C45.0027 36.6987 45.8747 37.144 46.4267 38.032C47.024 38.9973 47.3227 40.528 47.3227 42.6267C47.3227 46.3707 46.192 48.248 43.936 48.248C42.7493 48.248 41.8827 47.8027 41.328 46.9147L41.3333 46.9013ZM36.912 45.768C36.912 47.0213 36.4533 48.0507 35.536 48.8507C34.6187 49.6507 33.3947 50.0507 31.8453 50.0507C30.3973 50.0507 29.008 49.592 27.6507 48.6773L28.2827 47.408C29.4507 47.9947 30.504 48.2827 31.456 48.2827C32.3413 48.2827 33.0373 48.088 33.544 47.696C33.7972 47.5051 34.0017 47.257 34.1408 46.972C34.2798 46.687 34.3494 46.3731 34.344 46.056C34.344 45.176 33.7307 44.4293 32.616 43.8027C31.5813 43.2347 29.5147 42.0507 29.5147 42.0507C28.3893 41.232 27.8293 40.3547 27.8293 38.912C27.8293 37.712 28.248 36.752 29.0827 36.0187C29.9227 35.2773 31.0027 34.912 32.336 34.912C33.7013 34.912 34.9493 35.2747 36.0693 36.0053L35.5013 37.2747C34.6064 36.8816 33.6414 36.673 32.664 36.6613C31.9093 36.6613 31.3253 36.8427 30.92 37.2107C30.7143 37.3811 30.5485 37.5945 30.4342 37.8359C30.32 38.0774 30.26 38.3409 30.2587 38.608C30.2587 39.4827 30.8827 40.2347 32.0347 40.8747C33.0827 41.448 35.2 42.6613 35.2 42.6613C36.3547 43.4747 36.928 44.3413 36.928 45.776L36.912 45.768ZM61.9307 30.1627C60.504 30.1253 59.3973 30.2693 58.472 30.664C58.2053 30.7707 57.7787 30.7707 57.7413 31.1093C57.888 31.2507 57.9093 31.4827 58.0347 31.68C58.248 32.0373 58.616 32.5147 58.9573 32.7653C59.3307 33.0587 59.704 33.3413 60.096 33.592C60.7893 34.0187 61.576 34.272 62.256 34.7013C62.6427 34.952 63.0373 35.2693 63.4293 35.536C63.624 35.6693 63.7493 35.9093 64 35.9947V35.9413C63.8773 35.7813 63.84 35.5493 63.72 35.3707C63.5413 35.192 63.3627 35.032 63.1867 34.856C62.6631 34.1661 62.0383 33.5592 61.3333 33.056C60.7627 32.6667 59.5147 32.1227 59.28 31.4693L59.2453 31.432C59.6347 31.3973 60.0987 31.256 60.472 31.1493C61.0773 30.9893 61.632 31.024 62.2587 30.8667C62.5413 30.7947 62.8267 30.7067 63.112 30.616V30.456C62.792 30.136 62.552 29.7013 62.2213 29.4027C61.2984 28.5959 60.3141 27.8622 59.2773 27.208C58.7173 26.8507 58.008 26.6213 57.4187 26.3173C57.2053 26.2107 56.848 26.1573 56.7253 25.9787C56.4053 25.5893 56.2187 25.072 55.992 24.608C55.4684 23.5922 54.9818 22.5578 54.5333 21.5067C54.2133 20.808 54.0187 20.112 53.6267 19.472C51.7867 16.44 49.7947 14.6027 46.7307 12.8053C46.072 12.432 45.2827 12.272 44.448 12.0747C44.0027 12.0533 43.5573 12.0213 43.1147 12.0027C42.8213 11.8773 42.5387 11.5387 42.288 11.376C41.2747 10.736 38.6507 9.34935 37.904 11.184C37.424 12.3413 38.616 13.4827 39.0293 14.0693C39.336 14.4773 39.7227 14.944 39.936 15.4027C40.0613 15.712 40.096 16.0293 40.2213 16.352C40.504 17.136 40.7733 18.0107 41.1467 18.744C41.3413 19.1173 41.5547 19.5093 41.8053 19.8453C41.9493 20.04 42.1947 20.1307 42.2507 20.4507C42 20.8133 41.984 21.3413 41.84 21.784C41.2 23.8027 41.4507 26.2987 42.3573 27.784C42.6427 28.2267 43.3227 29.208 44.232 28.832C45.032 28.512 44.856 27.4987 45.0853 26.6053C45.1387 26.392 45.104 26.2507 45.2133 26.1067V26.1467C45.464 26.648 45.7147 27.1253 45.944 27.6267C46.4933 28.5013 47.4533 29.408 48.256 30.0133C48.6827 30.3333 49.0213 30.888 49.5547 31.0853V31.032H49.5147C49.4 30.8773 49.248 30.8027 49.104 30.6773C48.7659 30.3464 48.4538 29.9897 48.1707 29.6107C47.4193 28.5841 46.7531 27.4978 46.1787 26.3627C45.8853 25.8027 45.64 25.2 45.4053 24.648C45.2987 24.4347 45.2987 24.1147 45.12 24.008C44.8533 24.3973 44.4613 24.736 44.2667 25.216C43.928 25.984 43.8933 26.928 43.7653 27.9093C43.6933 27.928 43.728 27.9093 43.6933 27.9467C43.1227 27.808 42.928 27.216 42.7147 26.72C42.1813 25.4533 42.0933 23.4187 42.5547 21.96C42.68 21.5867 43.2133 20.408 43 20.0507C42.888 19.712 42.536 19.5173 42.3413 19.2427C42.0909 18.8852 41.8765 18.5038 41.7013 18.104C41.2747 17.1067 41.0613 16.0027 40.5973 15.0053C40.384 14.544 40.0107 14.0613 39.7067 13.6373C39.368 13.1573 38.9947 12.8187 38.7253 12.2507C38.6373 12.056 38.512 11.7333 38.6533 11.52C38.6907 11.376 38.7653 11.32 38.904 11.28C39.1387 11.088 39.7973 11.3387 40.0293 11.4453C40.688 11.712 41.2427 11.9627 41.7947 12.336C42.0453 12.512 42.3147 12.8507 42.6347 12.9387H43.008C43.5787 13.064 44.2213 12.976 44.7547 13.1333C45.7013 13.4373 46.5547 13.88 47.32 14.36C49.6782 15.8665 51.5964 17.9695 52.88 20.456C53.0933 20.8667 53.1867 21.2427 53.3813 21.6693C53.7547 22.5493 54.216 23.4373 54.5947 24.288C54.968 25.128 55.328 25.984 55.864 26.68C56.1307 27.0533 57.2027 27.248 57.6827 27.4427C58.0373 27.6027 58.5893 27.7493 58.9093 27.944C59.5227 28.3173 60.12 28.744 60.696 29.1547C60.9893 29.3573 61.8773 29.8027 61.9307 30.1627Z" fill="black"/>
</svg>
