<svg width="64" height="64" viewBox="0 0 64 64" fill="none" xmlns="http://www.w3.org/2000/svg">
<path d="M27.6292 33.4129H31.8582L29.6221 29.8153L25.518 36.3199H23.6502L28.6421 28.5064C28.8591 28.1908 29.2209 28 29.6221 28C30.0101 28 30.3719 28.1841 30.5824 28.4933L35.594 36.3199H33.7262L32.845 34.8664H28.5634L27.6294 33.4129H27.6292ZM47.0314 34.8663V28.0789H45.4464V35.5306C45.4464 35.7345 45.5252 35.9319 45.6765 36.0831C45.8277 36.2344 46.0316 36.3199 46.2552 36.3199H53.4834L54.4174 34.8664H47.0312L47.0314 34.8663ZM20.8089 33.6495C22.348 33.6495 23.5976 32.4065 23.5976 30.8675C23.5976 29.3284 22.348 28.0787 20.8089 28.0787H13.8748V36.32H15.4593V29.5325H20.7038C21.4404 29.5325 22.0322 30.1311 22.0322 30.8677C22.0322 31.6042 21.4404 32.2028 20.7038 32.2028L16.2354 32.1962L20.9667 36.32H23.2687L20.0855 33.6498H20.809L20.8089 33.6495ZM4.12125 36.3199C1.84625 36.32 0 34.4784 0 32.2028C0 29.927 1.84625 28.079 4.12125 28.079H8.91125C11.1868 28.079 13.0316 29.927 13.0316 32.2028C13.0316 34.4784 11.1868 36.3199 8.91113 36.3199H4.12125ZM8.80475 34.8664C10.2786 34.8664 11.4724 33.6759 11.4724 32.2026C11.4724 30.7295 10.2786 29.5325 8.80475 29.5325H4.22725C2.75388 29.5325 1.5595 30.7295 1.5595 32.2028C1.5595 33.6759 2.75388 34.8664 4.22713 34.8664H8.80462H8.80475ZM38.9022 36.3199C36.6267 36.3199 34.7785 34.4784 34.7785 32.2028C34.7785 29.927 36.6267 28.079 38.9022 28.079H44.5915L43.664 29.5325H39.0075C37.5342 29.5325 36.3372 30.7295 36.3372 32.2028C36.3372 33.6759 37.5342 34.8664 39.0075 34.8664H44.7229L43.7889 36.3199H38.9022ZM58.2848 34.8664C57.068 34.8664 56.0354 34.0509 55.7197 32.9261H62.494L63.4279 31.4726H55.7197C56.0354 30.3545 57.068 29.5325 58.2848 29.5325H62.9347L63.875 28.0787H58.1794C55.9037 28.0787 54.0556 29.9269 54.0556 32.2025C54.0556 34.4782 55.9037 36.3197 58.1794 36.3197H63.0661L64 34.8664H58.2846H58.2848Z" fill="#EA1B22"/>
</svg>
