<svg width="64" height="64" viewBox="0 0 64 64" fill="none" xmlns="http://www.w3.org/2000/svg">
<path d="M31.9996 34.7466C34.6285 34.7466 36.7596 32.6155 36.7596 29.9867C36.7596 27.3578 34.6285 25.2267 31.9996 25.2267C29.3707 25.2267 27.2396 27.3578 27.2396 29.9867C27.2396 32.6155 29.3707 34.7466 31.9996 34.7466Z" fill="cyan"/>
<path d="M18.671 39.4507L17.6176 39.1813C9.79363 37.2053 5.30563 33.8453 5.30563 29.976C5.30563 26.104 9.7963 22.7467 17.6176 20.7707L18.671 20.504L18.967 21.5467C19.7577 24.2765 20.7709 26.937 21.9963 29.5013L22.223 29.976L21.9963 30.4507C20.7696 33.0187 19.7536 35.68 18.967 38.4107L18.671 39.4507ZM17.1323 23.1973C11.1883 24.872 7.53763 27.4267 7.53763 29.976C7.53763 32.52 11.1856 35.0773 17.1323 36.7493C17.8603 34.4347 18.7403 32.1707 19.759 29.976C18.7329 27.7777 17.8554 25.513 17.1323 23.1973ZM45.3243 39.4507L45.031 38.4053C44.2381 35.6749 43.2241 33.0137 41.999 30.448L41.7723 29.976L41.999 29.4987C43.2256 26.936 44.2363 24.272 45.031 21.5413L45.3243 20.5013L46.3776 20.768C54.2043 22.744 58.6896 26.1013 58.6896 29.976C58.6896 33.848 54.2016 37.2053 46.3776 39.1813L45.3243 39.4507ZM44.231 29.976C45.2976 32.2853 46.1856 34.5573 46.863 36.7493C52.8096 35.0773 56.4603 32.52 56.4603 29.976C56.4603 27.4267 52.8123 24.8747 46.863 23.1973C46.1357 25.5123 45.2565 27.7768 44.231 29.976Z" fill="cyan"/>
<path d="M17.1164 23.1867L16.823 22.1467C14.6204 14.392 15.287 8.83735 18.655 6.90135C21.9484 4.99468 27.247 7.24801 32.7964 12.9413L33.5537 13.72L32.7964 14.496C30.8254 16.5458 29.0239 18.7522 27.4097 21.0933L27.1084 21.5253L26.5857 21.568C23.7473 21.7909 20.9317 22.2449 18.167 22.9253L17.1164 23.1867ZM21.335 8.44268C20.7377 8.44268 20.2097 8.57335 19.7644 8.82935C17.5564 10.1013 17.167 14.5307 18.687 20.5093C21.063 19.984 23.4604 19.608 25.8764 19.3973C27.2751 17.4135 28.8009 15.5224 30.4444 13.736C26.9697 10.3573 23.6897 8.44268 21.335 8.44268ZM42.6604 53.7333C39.4924 53.7333 35.423 51.344 31.199 47.008L30.4444 46.232L31.199 45.4587C33.1703 43.4056 34.9726 41.1966 36.5884 38.8533L36.887 38.4267L37.4044 38.376C40.2438 38.157 43.0604 37.7048 45.8257 37.024L46.879 36.7573L47.175 37.8C49.367 45.5493 48.703 51.112 45.3404 53.048C44.5239 53.5108 43.5988 53.7474 42.6604 53.7333ZM33.5537 46.2133C37.0257 49.592 40.3084 51.5093 42.6604 51.5093C43.2604 51.5093 43.7884 51.376 44.231 51.1227C46.4417 49.848 46.8337 45.4107 45.3084 39.432C42.935 39.96 40.535 40.3387 38.1137 40.5493C36.7209 42.5363 35.1976 44.4285 33.5537 46.2133Z" fill="cyan"/>
<path d="M46.8796 23.1866L45.8263 22.9226C43.0611 22.2401 40.2445 21.7861 37.4049 21.5653L36.8876 21.52L36.5889 21.088C34.9755 18.7455 33.173 16.5391 31.1996 14.4906L30.4449 13.7146L31.1996 12.9413C36.7463 7.25064 42.0423 4.99731 45.3409 6.90131C48.7063 8.83998 49.3756 14.3946 47.1756 22.1467L46.8796 23.1866ZM38.1143 19.3973C40.6583 19.624 43.0689 20.0053 45.3089 20.5093C46.8316 14.5306 46.4423 10.1013 44.2316 8.82664C42.0343 7.55464 37.8983 9.50131 33.5543 13.736C35.1969 15.5226 36.7223 17.4106 38.1143 19.3973ZM21.3356 53.7333C20.3973 53.7467 19.4723 53.5102 18.6556 53.048C15.2876 51.112 14.6209 45.552 16.8209 37.8L17.1089 36.7573L18.1622 37.024C20.7329 37.672 23.5649 38.128 26.5836 38.376L27.1009 38.4267L27.4023 38.8533C29.0129 41.1947 30.8156 43.4053 32.7889 45.4587L33.5463 46.232L32.7889 47.008C28.5676 51.3467 24.4983 53.7333 21.3356 53.7333ZM18.6876 39.4347C17.1676 45.4133 17.5569 49.8507 19.7649 51.1253C21.9649 52.3787 26.0876 50.4453 30.4449 46.2133C28.8021 44.4264 27.2763 42.5353 25.8769 40.552C23.4585 40.3381 21.0568 39.9649 18.6876 39.4347Z" fill="cyan"/>
<path d="M32.0004 40.8347C30.1684 40.8347 28.2884 40.7573 26.4004 40.6L25.8777 40.5547L25.5764 40.1227C24.5118 38.5917 23.51 37.018 22.5737 35.4053C21.6444 33.7883 20.7806 32.1346 19.9844 30.448L19.7604 29.976L19.9844 29.4987C20.7817 27.8133 21.6431 26.16 22.5737 24.544C23.4991 22.9547 24.5097 21.3653 25.5764 19.824L25.8777 19.3973L26.4004 19.3493C30.1254 19.0373 33.87 19.0373 37.5951 19.3493L38.1124 19.4L38.4137 19.8267C40.5465 22.89 42.4197 26.1261 44.0137 29.5013L44.2351 29.9787L44.0137 30.4507C42.4241 33.8282 40.5507 37.0647 38.4137 40.1253L38.1124 40.5573L37.5951 40.6027C35.7124 40.7547 33.8297 40.8347 32.0004 40.8347ZM27.1097 38.424C30.4031 38.672 33.5977 38.672 36.8884 38.424C38.7254 35.7339 40.3585 32.91 41.7737 29.976C40.3635 27.0394 38.7302 24.2151 36.8884 21.528C33.6337 21.2773 30.3645 21.2773 27.1097 21.528C25.2664 24.2141 23.6331 27.0385 22.2244 29.976C23.6427 32.9084 25.2756 35.732 27.1097 38.424Z" fill="cyan"/>
</svg>
